<svg width="46" height="70" viewBox="0 0 46 70" fill="none" xmlns="http://www.w3.org/2000/svg">
<g clip-path="url(#clip0_1_28)">
<path fill-rule="evenodd" clip-rule="evenodd" d="M31.9762 67.2073C29.2004 62.9394 27.5893 57.7633 27.1036 52.4156C26.7089 48.6018 26.7872 44.7109 27.154 40.8226C27.8765 41.2322 28.6746 41.5008 29.4628 41.6584C31.0073 41.9629 32.5379 41.808 33.9702 41.4456C35.4039 41.072 36.7262 40.429 37.9024 39.5574C39.0661 38.6724 40.1289 37.6046 40.8189 36.0853C39.1802 35.9264 37.8062 36.0255 36.4906 36.1957C35.1797 36.3606 33.9656 36.6512 32.7873 36.945C31.6104 37.2402 30.4812 37.6179 29.3275 38.0009C28.7005 38.2057 28.0756 38.4204 27.3876 38.6511C27.4897 37.8087 27.5999 36.9663 27.7239 36.1272C27.8871 35.0654 28.0729 34.0069 28.2706 32.9491C29.1119 33.5428 30.1037 33.9065 31.0803 34.1013C32.6248 34.4065 34.1547 34.2509 35.587 33.8886C37.0214 33.5149 38.3436 32.8719 39.5192 32.0003C40.6829 31.116 41.7457 30.0475 42.4357 28.5289C40.797 28.37 39.4237 28.4691 38.1074 28.6386C36.7971 28.8042 35.583 29.0947 34.4041 29.3886C33.2278 29.6832 32.0987 30.0608 30.9449 30.4445C30.1992 30.6865 29.4595 30.9451 28.6076 31.2257C28.9181 29.7078 29.2611 28.1945 29.6366 26.6872C30.728 27.4864 31.9879 27.9598 33.2889 28.1293C34.8798 28.3773 36.5298 28.1679 38.0451 27.6307C39.567 27.1027 40.9523 26.2125 42.0516 25.0562C43.131 23.8947 44.0154 22.4831 44.2098 20.7631C42.5651 21.1839 41.28 21.6174 40.0228 22.029L36.4953 23.2437L33.0082 24.4811C32.3999 24.7357 31.7663 24.9146 31.0955 25.1945C30.7081 25.3574 30.3094 25.4984 29.8927 25.6679C30.3492 23.898 30.8481 22.1367 31.3828 20.3847C32.4257 21.3528 33.8654 21.8475 35.3057 21.914C36.9696 21.9545 38.5825 21.4645 39.9558 20.7019C41.3377 19.9339 42.4715 18.8681 43.3519 17.6301C44.2124 16.3821 44.8792 14.9732 44.978 13.2851C43.3838 13.7591 42.1239 14.321 40.9403 14.8994C39.7587 15.4652 38.7092 16.0896 37.6828 16.6434L34.6688 18.3103C33.7831 18.7491 32.8537 19.1613 31.6183 19.6301C32.1464 17.9399 32.713 16.2598 33.3015 14.5863C33.9835 15.1394 34.7989 15.3668 35.589 15.4393C36.5119 15.5071 37.444 15.3422 38.276 14.9639C39.1026 14.5789 39.8616 14.0331 40.4116 13.2977C40.9735 12.5796 41.3609 11.7066 41.4061 10.6668C40.8541 10.6907 40.4434 10.8137 40.0148 10.8908C39.5889 10.9666 39.2353 11.1016 38.8664 11.192C38.1658 11.4294 37.5223 11.6368 36.9232 11.9287C36.3148 12.2046 35.7264 12.5065 35.0994 12.8808C34.6151 13.1714 34.1248 13.4919 33.5463 13.8974C33.9981 12.6348 34.4698 11.3789 34.9601 10.1295C35.5764 10.2805 36.2405 10.1974 36.8283 10.0265C37.6138 9.79044 38.3184 9.36624 38.9082 8.84497C39.5139 8.33168 39.9863 7.70137 40.3704 7.0305C40.5429 6.6821 40.7048 6.32838 40.8256 5.95671C40.9257 5.56975 41.0266 5.19076 41.0458 4.77122C40.655 4.94941 40.3459 5.16882 40.0354 5.38092C39.7229 5.58969 39.433 5.80445 39.1636 6.03118C38.6024 6.4587 38.1048 6.91348 37.6026 7.341C37.109 7.77983 36.6273 8.21134 36.1198 8.63354C35.8478 8.85894 35.5771 9.08633 35.2805 9.31305C35.4106 8.98792 36.8018 5.63025 37.3637 4.39157C36.7812 5.46802 36.2239 6.55843 35.6753 7.65416C35.6189 7.15882 35.5996 6.70404 35.5784 6.25126C35.5485 5.59102 35.5432 4.94342 35.5353 4.28186C35.5127 3.6223 35.514 2.94744 35.4517 2.24332C35.4378 1.8916 35.4013 1.5319 35.3449 1.15956C35.2918 0.785895 35.2467 0.40957 35.1153 0C34.8181 0.297204 34.6071 0.626987 34.3882 0.96076C34.1951 1.30118 34.0432 1.65889 33.9026 2.02125C33.6657 2.75728 33.5178 3.53187 33.5456 4.32575C33.5582 5.11364 33.7188 5.92147 34.0731 6.66215C34.367 7.26122 34.7975 7.85429 35.3966 8.20269C35.1439 8.71333 33.5509 12.1215 33.0739 13.2013C33.0043 12.2405 32.9246 11.5058 32.8152 10.8097C32.6997 10.0883 32.5531 9.44071 32.3753 8.79644C32.2154 8.14884 31.9607 7.51986 31.6933 6.82904C31.5268 6.48862 31.4034 6.12958 31.1884 5.75259C30.9735 5.37361 30.8043 4.97933 30.4686 4.53917C29.7016 5.24129 29.281 6.09833 29.0906 6.99061C28.8803 7.88488 28.9486 8.81904 29.1835 9.70135C29.427 10.5843 29.898 11.4061 30.5416 12.073C31.1778 12.7093 31.9892 13.2425 33.0155 13.3349C32.2678 15.0284 31.552 16.7378 30.8673 18.4606C30.5741 17.4745 30.3697 16.7119 30.1488 15.9745C29.896 15.0311 29.6167 14.1727 29.2545 13.2964C28.8916 12.4207 28.4909 11.5205 27.9316 10.6009C27.3723 9.67342 26.7188 8.73194 25.6991 7.6894C24.7988 8.8616 24.4784 10.1189 24.3716 11.3596C24.2827 12.6036 24.4724 13.8489 24.9448 15.0277C25.4225 16.1999 26.1668 17.3223 27.2257 18.1673C28.1412 18.8754 29.2883 19.3847 30.5064 19.3561C30.4732 19.4419 30.4367 19.5257 30.4036 19.6115C29.7733 21.2418 29.1782 22.8874 28.6149 24.5443C28.4013 24.1945 28.193 23.8727 28.0238 23.5183C27.8586 23.2218 27.6947 22.9452 27.5295 22.6852C27.3882 22.394 27.2443 22.1227 27.0943 21.8674C26.5417 20.8029 25.9864 19.8661 25.4722 18.8375C24.9395 17.8269 24.3908 16.7943 23.7473 15.6953C23.1024 14.5889 22.4025 13.4473 21.4027 12.1388C20.4778 13.5337 20.2091 15.0803 20.2204 16.5949C20.2456 18.1161 20.6497 19.6307 21.3688 21.0164C22.0694 22.4073 23.1966 23.632 24.5374 24.4804C24.8818 24.6859 25.2327 24.874 25.5857 25.0436C25.9612 25.1879 26.3486 25.3016 26.7288 25.402C26.9238 25.4445 27.1089 25.4964 27.3053 25.5256C27.5103 25.5396 27.708 25.5602 27.9143 25.5562C28.0344 25.5582 28.1532 25.5535 28.2719 25.5522C27.6954 27.2969 27.1627 29.0588 26.6704 30.8347C25.9844 29.9551 25.3316 29.249 24.7358 28.5163L22.3355 25.8016C21.5374 24.9279 20.7326 24.0456 19.8416 23.1161C18.9393 22.1826 17.9986 21.2285 16.7407 20.1301C16.133 21.7152 16.2378 23.3415 16.6345 24.8401C17.0372 26.3501 17.8314 27.7424 18.8823 28.9126C19.9292 30.0828 21.2428 31.0428 22.7322 31.5748C23.8607 32.0189 25.0934 32.2024 26.3347 32.0701C26.0176 33.2722 25.717 34.4796 25.4424 35.6957C25.2573 36.5355 25.0868 37.3805 24.9229 38.2276C24.2853 37.4238 23.677 36.7595 23.119 36.0727L20.7187 33.3593C19.9199 32.4843 19.1158 31.602 18.2248 30.6738C17.3219 29.7397 16.3818 28.7856 15.1245 27.6872C14.5162 29.2723 14.6203 30.8986 15.0177 32.3972C15.4198 33.9065 16.2139 35.3001 17.2648 36.4696C18.3124 37.6398 19.6253 38.6006 21.1147 39.1318C22.2267 39.5693 23.4388 39.7562 24.6622 39.6345C23.9125 43.8918 23.4832 48.2368 23.6279 52.6443C23.6484 54.0871 23.8037 55.5319 23.947 56.9807L24.2886 59.1476C24.3948 59.8723 24.5998 60.5837 24.7537 61.3038C25.1396 62.8817 25.6362 65.4447 26.2499 66.9745C26.2797 67.0488 28.1885 67.1264 31.9762 67.2073Z" fill="#C08D5D"/>
</g>
<g clip-path="url(#clip1_1_28)">
<path fill-rule="evenodd" clip-rule="evenodd" d="M26.8551 64.5092C26.5247 61.9851 25.4566 59.4939 23.9048 57.3029C22.8166 55.7246 21.5234 54.2707 20.1214 52.9114C19.9797 53.3017 19.7634 53.663 19.5149 53.9788C19.0265 54.5961 18.3943 55.0342 17.732 55.3615C17.0656 55.685 16.3541 55.8699 15.6238 55.9204C14.894 55.9617 14.1432 55.9009 13.3875 55.5472C13.959 54.9547 14.5135 54.5463 15.069 54.1838C15.621 53.8208 16.177 53.5371 16.7204 53.2662C17.2638 52.9963 17.8157 52.7732 18.3788 52.5442C18.6836 52.4185 18.991 52.2973 19.3275 52.1616C19.0151 51.8745 18.6997 51.5899 18.3801 51.3112C17.9732 50.9604 17.5589 50.6183 17.1402 50.2803C17.0132 50.7792 16.7542 51.2395 16.4461 51.6307C15.9579 52.2482 15.3257 52.6858 14.6635 53.0132C13.9968 53.3368 13.2852 53.5217 12.5552 53.572C11.8256 53.6136 11.0746 53.5525 10.3191 53.1991C10.8906 52.6066 11.4449 52.1984 12.0005 51.8354C12.5524 51.4729 13.1084 51.1892 13.6521 50.9181C14.195 50.6481 14.7469 50.4251 15.3102 50.1963C15.6723 50.0462 16.0375 49.9044 16.4525 49.7344C15.8416 49.2581 15.2198 48.7941 14.5876 48.3429C14.4321 49.0012 14.1068 49.5903 13.6672 50.0772C13.1428 50.688 12.4475 51.1442 11.6969 51.4319C10.9468 51.7254 10.131 51.8367 9.3376 51.754C8.55002 51.6628 7.75543 51.4133 7.12301 50.8224C7.88501 50.4484 8.51438 50.196 9.12604 49.9442L10.8617 49.2607L12.5893 48.5989C12.9033 48.4982 13.2023 48.3605 13.5482 48.2491C13.7484 48.1852 13.9458 48.1094 14.1593 48.0385C13.411 47.5138 12.6494 47.0061 11.8772 46.5136C11.795 47.2203 11.4083 47.8759 10.8822 48.3688C10.2627 48.9245 9.49039 49.2619 8.7206 49.4179C7.9458 49.5746 7.16863 49.5375 6.4319 49.3527C5.6995 49.1576 4.98851 48.8384 4.40277 48.2286C5.16287 47.8912 5.82432 47.6957 6.46217 47.5314C7.09516 47.3628 7.69694 47.2594 8.26701 47.1367L9.95424 46.7919C10.4335 46.6711 10.9207 46.526 11.5426 46.3032C10.7931 45.832 10.0321 45.3771 9.26492 44.9319C9.18523 45.3637 8.94905 45.7149 8.67215 45.999C8.34328 46.3245 7.93533 46.5645 7.49616 46.6907C7.05685 46.8128 6.59103 46.8517 6.14313 46.7507C5.69631 46.6601 5.26553 46.454 4.91072 46.0732C5.12837 45.9031 5.32445 45.8165 5.51245 45.7067C5.69901 45.5972 5.87729 45.5337 6.0469 45.4483C6.39035 45.3111 6.7024 45.181 7.02496 45.0975C7.34587 45.0048 7.66763 44.9285 8.02756 44.8673C8.30605 44.8205 8.59652 44.7831 8.94818 44.7495C8.36642 44.4161 7.77925 44.0918 7.18717 43.7759C7.00184 44.0335 6.72234 44.2175 6.44336 44.3434C6.06806 44.5087 5.66242 44.5762 5.26891 44.5695C4.87194 44.571 4.48767 44.4847 4.12378 44.3544C3.94507 44.2779 3.76866 44.196 3.60207 44.0939C3.43833 43.9793 3.27693 43.8679 3.13339 43.7147C3.33982 43.6555 3.52862 43.6386 3.71554 43.6184C3.90214 43.5963 4.08211 43.5838 4.25814 43.5826C4.61037 43.5629 4.94723 43.5742 5.277 43.5737C5.60716 43.5803 5.93041 43.588 6.26048 43.5837C6.43709 43.5811 6.61384 43.5796 6.80022 43.5695C6.64521 43.4881 5.02598 42.6632 4.41012 42.3747C4.98112 42.5949 5.54708 42.8285 6.11148 43.067C5.97208 42.8603 5.83173 42.6812 5.69278 42.5021C5.48975 42.2414 5.28149 41.9934 5.0697 41.7393C4.86412 41.4812 4.64448 41.225 4.43957 40.9371C4.33066 40.7988 4.22773 40.6502 4.12827 40.4903C4.02712 40.331 3.92208 40.1733 3.83904 39.9749C4.04855 39.9914 4.23585 40.0483 4.42747 40.1041C4.61141 40.1708 4.78533 40.2575 4.95647 40.3496C5.28551 40.5526 5.59328 40.7991 5.84046 41.1099C6.0915 41.4136 6.29276 41.7729 6.39856 42.1696C6.48133 42.4928 6.51019 42.8581 6.39554 43.1851C6.65745 43.2971 8.36977 44.0758 8.90175 44.3314C8.61627 43.9435 8.40798 43.6383 8.22356 43.3381C8.03321 43.0263 7.87868 42.7325 7.73709 42.4298C7.5876 42.1316 7.48023 41.8098 7.35758 41.4603C7.31036 41.2768 7.2407 41.1002 7.20002 40.8871C7.15869 40.6732 7.09499 40.4683 7.07971 40.192C7.5993 40.2099 8.03751 40.3992 8.39963 40.6766C8.76997 40.9483 9.04731 41.3257 9.2445 41.7375C9.43863 42.1522 9.52637 42.6176 9.49823 43.0802C9.46292 43.5287 9.32756 43.9949 8.96734 44.3633C9.8015 44.7644 10.6287 45.1819 11.4484 45.6146C11.2398 45.1445 11.0698 44.7882 10.9144 44.4361C10.7042 43.9953 10.5317 43.5782 10.3848 43.1274C10.2385 42.6766 10.0985 42.2042 10.0126 41.673C9.92409 41.1387 9.86685 40.5686 9.91605 39.8411C10.639 39.9944 11.1691 40.3684 11.6125 40.8055C12.0503 41.2496 12.3825 41.7847 12.5857 42.3863C12.7846 42.9871 12.866 43.6556 12.7378 44.3207C12.6197 44.8872 12.3489 45.4533 11.8765 45.838C11.9169 45.8598 11.958 45.8798 11.9985 45.9016C12.7675 46.3169 13.5281 46.7493 14.2802 47.1964C14.2479 46.9941 14.2226 46.8041 14.1719 46.6144C14.1384 46.448 14.1109 46.2896 14.0893 46.1371C14.0485 45.9805 14.0151 45.8306 13.9892 45.6849C13.8537 45.1007 13.7607 44.5642 13.6222 44.0061C13.4966 43.4489 13.3699 42.8781 13.2577 42.2513C13.1437 41.6212 13.0391 40.9599 12.9944 40.1378C13.799 40.3678 14.4033 40.8686 14.8908 41.4482C15.3752 42.0348 15.7134 42.7418 15.8898 43.5022C16.0751 44.2585 16.0442 45.0902 15.8099 45.8481C15.7457 46.0381 15.6733 46.2236 15.5942 46.4026C15.4982 46.5794 15.3878 46.7485 15.2759 46.9101C15.2156 46.9896 15.162 47.0694 15.0968 47.1443C15.0234 47.2162 14.955 47.2882 14.8752 47.3537C14.8302 47.3934 14.7835 47.4302 14.738 47.4683C15.5237 47.9444 16.2983 48.4414 17.0621 48.9568C17.0374 48.3996 17.0563 47.9191 17.0449 47.4471L17.0761 45.6355C17.0958 45.0441 17.1153 44.4474 17.1523 43.8046C17.1923 43.1567 17.2401 42.4885 17.3618 41.6624C18.1075 42.0678 18.5957 42.7202 18.9315 43.4188C19.2687 44.1237 19.4188 44.9109 19.3992 45.6971C19.3811 46.4819 19.1934 47.2735 18.7998 47.9594C18.5149 48.4947 18.1058 48.9647 17.5909 49.3175C18.1018 49.6716 18.6082 50.0331 19.1075 50.4063C19.4505 50.6654 19.7897 50.9314 20.1271 51.2003C20.1085 50.6876 20.1241 50.2375 20.1133 49.7952L20.1448 47.9841C20.1644 47.392 20.1837 46.7955 20.2211 46.1533C20.2611 45.5049 20.3087 44.8369 20.4301 44.011C21.1761 44.4161 21.6645 45.0683 22.0001 45.7672C22.3373 46.4716 22.4878 47.2593 22.468 48.0452C22.4497 48.8303 22.2624 49.6219 21.8686 50.3075C21.5879 50.8349 21.1877 51.2995 20.683 51.6505C22.3504 53.0258 23.9245 54.5385 25.3007 56.2613C25.7613 56.8165 26.1714 57.4163 26.5874 58.0137L27.161 58.9485C27.356 59.2585 27.5091 59.5956 27.6843 59.9193C28.05 60.6446 28.6934 61.7803 28.9568 62.5613C28.9696 62.5992 28.269 63.2485 26.8551 64.5092Z" fill="#C08D5D"/>
</g>
<defs>
<clipPath id="clip0_1_28">
<rect width="30.5182" height="67.8183" fill="white" transform="translate(14.694)"/>
</clipPath>
<clipPath id="clip1_1_28">
<rect width="15.2591" height="33.9092" fill="white" transform="matrix(-0.760439 0.649409 0.649409 0.760439 11.6036 33.344)"/>
</clipPath>
</defs>
</svg>
